<svg width="78" height="60" viewBox="0 0 78 60" fill="none" xmlns="http://www.w3.org/2000/svg">
<g style="mix-blend-mode:darken" filter="url(#filter0_d)">
<path d="M4.44531 37.0527V33.5117H7.33594V36.5469C7.33594 41.0273 9.21484 44.4479 12.9727 46.8086C14.8516 48.013 16.61 48.6152 18.248 48.6152V51.3613C15.5983 51.3613 12.9004 50.3496 10.1543 48.3262C6.39648 45.4355 4.49349 41.6777 4.44531 37.0527ZM21.5723 51.3613V48.6152C23.5475 48.6152 25.7396 47.7721 28.1484 46.0859C31.4245 43.6771 33.0866 40.666 33.1348 37.0527V0.414062H36.0254V37.0527C36.0254 42.4004 33.5924 46.4473 28.7266 49.1934C26.2214 50.6387 23.8366 51.3613 21.5723 51.3613ZM41.8066 37.125V13.1328C41.8066 10.4831 42.8906 7.83333 45.0586 5.18359C47.9974 1.76302 51.7311 0.0527344 56.2598 0.0527344V2.79883C52.791 2.79883 49.8522 4.19596 47.4434 6.99023C45.6126 9.1582 44.6973 11.5911 44.6973 14.2891V37.125C44.6973 41.4609 46.8171 44.7611 51.0566 47.0254C53.0319 48.0853 54.7663 48.6152 56.2598 48.6152V51.3613C53.2246 51.3613 50.2858 50.3255 47.4434 48.2539C43.7337 45.5078 41.8548 41.7982 41.8066 37.125ZM59.5117 51.3613V48.6152C61.6797 48.6152 63.944 47.5312 66.3047 45.3633C68.9544 42.9062 70.3034 40.2083 70.3516 37.2695V28.2363H59.5117V25.4902H73.2422V38.2812C73.2422 41.2201 71.7487 44.1348 68.7617 47.0254C65.7266 49.8678 62.6432 51.3132 59.5117 51.3613ZM59.5117 2.79883V0.0527344C63.2695 0.00455729 66.5938 1.57031 69.4844 4.75C71.9896 7.49609 73.2422 10.4831 73.2422 13.7109L70.4238 14.7227C70.4238 14.1927 70.3997 13.8073 70.3516 13.5664C70.0143 9.23047 67.8704 6.05078 63.9199 4.02734C62.2819 3.20833 60.8125 2.79883 59.5117 2.79883Z" fill="black"/>
</g>
<defs>
<filter id="filter0_d" x="0.445312" y="0.0516548" width="76.7969" height="59.3097" filterUnits="userSpaceOnUse" color-interpolation-filters="sRGB">
<feFlood flood-opacity="0" result="BackgroundImageFix"/>
<feColorMatrix in="SourceAlpha" type="matrix" values="0 0 0 0 0 0 0 0 0 0 0 0 0 0 0 0 0 0 127 0"/>
<feOffset dy="4"/>
<feGaussianBlur stdDeviation="2"/>
<feColorMatrix type="matrix" values="0 0 0 0 0 0 0 0 0 0 0 0 0 0 0 0 0 0 0.25 0"/>
<feBlend mode="normal" in2="BackgroundImageFix" result="effect1_dropShadow"/>
<feBlend mode="normal" in="SourceGraphic" in2="effect1_dropShadow" result="shape"/>
</filter>
</defs>
</svg>
