<svg width="75" height="69" viewBox="0 0 75 69" fill="none" xmlns="http://www.w3.org/2000/svg">
<path d="M5.704 68.06C4.52 68.06 3.484 67.9613 2.596 67.764C1.708 67.616 0.918666 67.394 0.228 67.098V61.474C1.01733 61.6713 1.856 61.844 2.744 61.992C3.632 62.14 4.56933 62.214 5.556 62.214C6.78933 62.214 7.94867 61.9673 9.034 61.474C10.1687 60.9807 11.0813 60.1173 11.772 58.884C12.4627 57.6507 12.808 55.924 12.808 53.704V1.164H19.468V53.186C19.468 58.2673 18.21 62.0167 15.694 64.434C13.178 66.8513 9.848 68.06 5.704 68.06ZM56.3524 26.102H74.6304V52.002C71.769 52.9393 68.883 53.63 65.9724 54.074C63.0617 54.518 59.7564 54.74 56.0564 54.74C50.5804 54.74 45.9677 53.6547 42.2184 51.484C38.469 49.264 35.6077 46.1313 33.6344 42.086C31.7104 37.9913 30.7484 33.1567 30.7484 27.582C30.7484 22.0567 31.8337 17.2713 34.0044 13.226C36.175 9.18067 39.283 6.048 43.3284 3.828C47.423 1.55866 52.3564 0.423997 58.1284 0.423997C61.0884 0.423997 63.8757 0.69533 66.4904 1.238C69.1544 1.78066 71.621 2.54533 73.8904 3.532L71.3744 9.304C69.4997 8.46533 67.3784 7.75 65.0104 7.158C62.6917 6.566 60.2744 6.27 57.7584 6.27C51.4437 6.27 46.5104 8.16933 42.9584 11.968C39.4557 15.7667 37.7044 20.9713 37.7044 27.582C37.7044 31.7753 38.3704 35.5 39.7024 38.756C41.0837 41.9627 43.2297 44.4787 46.1404 46.304C49.051 48.08 52.8744 48.968 57.6104 48.968C59.929 48.968 61.9024 48.8447 63.5304 48.598C65.1584 48.3513 66.6384 48.0553 67.9704 47.71V32.022H56.3524V26.102Z" fill="#A99E9E"/>
</svg>
